<svg xmlns="http://www.w3.org/2000/svg" width="346.5" height="354.185" viewBox="0 0 346.5 354.185">
  <g id="Grupo_8" data-name="Grupo 8" transform="translate(-667.5 -162.599)">
    <g id="Engrane" transform="translate(722.5 162.599)" opacity="0.04">
      <path id="Trazado_1" data-name="Trazado 1" d="M397.433,322.4l10.552-31.273,11.415.216a126.569,126.569,0,0,0,1.01-13.919,127.152,127.152,0,0,0-.868-12.848l-11.556.219-10.552-31.273,10.291-6.907a95.311,95.311,0,0,0-16.261-21.76l-10.1,7.364-27.624-19.327,3.783-10.505a119.508,119.508,0,0,0-26.67-7.531l-3.118,9.9H293.585l-3.117-9.9a119.51,119.51,0,0,0-26.671,7.531l3.783,10.505-27.624,19.327-10.1-7.363A95.315,95.315,0,0,0,213.6,226.619l10.289,6.9L213.333,264.8l-11.555-.219a127.436,127.436,0,0,0-.869,12.843,126.384,126.384,0,0,0,1.009,13.923l11.416-.216L223.885,322.4l-9.856,6.614a95.342,95.342,0,0,0,16.447,21.6l9.48-6.911,27.624,19.328-3.446,9.566a119.6,119.6,0,0,0,26.655,7.444l2.795-8.874h34.146l2.8,8.874a119.619,119.619,0,0,0,26.655-7.444l-3.446-9.566L381.361,343.7l9.479,6.91a95.38,95.38,0,0,0,16.446-21.6Z" transform="translate(-200.909 -174.857)" fill="#1a2930"/>
    </g>
    <g id="Engrane-2" data-name="Engrane" transform="translate(870.5 383.599)" opacity="0.04">
      <path id="Trazado_1-2" data-name="Trazado 1" d="M329.388,270.627l6.9-20.3,7.462.14a81.567,81.567,0,0,0,.66-9.035,81.966,81.966,0,0,0-.568-8.339l-7.555.142-6.9-20.3,6.728-4.483a61.9,61.9,0,0,0-10.631-14.124l-6.6,4.78-18.06-12.545,2.473-6.819a78.564,78.564,0,0,0-17.436-4.889l-2.038,6.426H261.5l-2.038-6.426a78.564,78.564,0,0,0-17.436,4.889l2.473,6.819-18.06,12.545-6.6-4.779A61.906,61.906,0,0,0,209.2,208.456l6.727,4.482-6.9,20.3-7.554-.142a82.133,82.133,0,0,0-.568,8.337,81.458,81.458,0,0,0,.659,9.037l7.463-.14,6.9,20.3-6.443,4.293a61.935,61.935,0,0,0,10.752,14.02l6.2-4.486L244.5,297l-2.253,6.209a78.627,78.627,0,0,0,17.426,4.832l1.827-5.76H283.82l1.828,5.76a78.638,78.638,0,0,0,17.426-4.832L300.821,297l18.06-12.546,6.2,4.485a61.957,61.957,0,0,0,10.752-14.02Z" transform="translate(-200.909 -174.857)" fill="#1a2930"/>
    </g>
    <g id="Engrane-3" data-name="Engrane" transform="translate(667.5 368.599)" opacity="0.04">
      <path id="Trazado_1-3" data-name="Trazado 1" d="M298.947,247.617l5.264-15.422,5.694.106a46.8,46.8,0,0,0,.071-13.2l-5.765.108-5.264-15.422,5.134-3.406a47.047,47.047,0,0,0-8.112-10.731l-5.039,3.631-13.781-9.531,1.887-5.18a60.152,60.152,0,0,0-13.3-3.714l-1.555,4.882H247.142l-1.555-4.882a60.153,60.153,0,0,0-13.3,3.714l1.887,5.18-13.781,9.531-5.038-3.631a47.051,47.051,0,0,0-8.112,10.731l5.133,3.4-5.264,15.422-5.764-.108a46.8,46.8,0,0,0,.07,13.2l5.695-.106,5.264,15.422-4.917,3.261a47.079,47.079,0,0,0,8.2,10.651l4.729-3.408,13.781,9.532-1.719,4.717a60.207,60.207,0,0,0,13.3,3.671l1.394-4.376h17.034l1.395,4.376a60.215,60.215,0,0,0,13.3-3.671l-1.719-4.717,13.781-9.532,4.729,3.408a47.1,47.1,0,0,0,8.2-10.651Z" transform="translate(-200.909 -174.857)" fill="#1a2930"/>
    </g>
  </g>
</svg>
