<svg xmlns="http://www.w3.org/2000/svg" width="30" height="30" viewBox="0 0 30 30">
  <g id="Grupo_15" data-name="Grupo 15" transform="translate(0.077)">
    <g id="Grupo_10" data-name="Grupo 10" transform="translate(0 0)">
      <g id="Elipse_1" data-name="Elipse 1" transform="translate(-0.077 0)" fill="#1a2930" stroke="#707070" stroke-width="1">
        <circle cx="15" cy="15" r="15" stroke="none"/>
        <circle cx="15" cy="15" r="14.5" fill="none"/>
      </g>
    </g>
    <path id="Trazado_10" data-name="Trazado 10" d="M6.485-.247c0-.09-.1-.152-.219-.141s-.2.063-.2.141.09.152.219.141C6.395-.107,6.485-.169,6.485-.247ZM5.269-.423c-.027.078.051.168.168.192A.183.183,0,0,0,5.68-.31c.023-.078-.051-.168-.168-.2A.2.2,0,0,0,5.269-.423ZM7-.49c-.113.027-.192.1-.18.192s.113.129.231.1.192-.1.18-.18S7.11-.5,7-.49ZM9.569-15.469A9.373,9.373,0,0,0,0-5.931a9.8,9.8,0,0,0,6.626,9.35c.5.09.676-.219.676-.473S7.29,1.367,7.29.546c0,0-2.736.586-3.311-1.165,0,0-.446-1.138-1.087-1.431,0,0-.9-.614.063-.6A2.063,2.063,0,0,1,4.464-1.643a2.066,2.066,0,0,0,2.85.817,2.173,2.173,0,0,1,.625-1.317c-2.185-.242-4.39-.559-4.39-4.319a2.963,2.963,0,0,1,.923-2.3,3.693,3.693,0,0,1,.1-2.654c.817-.254,2.7,1.055,2.7,1.055A9.184,9.184,0,0,1,9.725-10.7a9.184,9.184,0,0,1,2.455.332s1.88-1.313,2.7-1.055a3.692,3.692,0,0,1,.1,2.654,3.039,3.039,0,0,1,1.008,2.3c0,3.772-2.3,4.073-4.487,4.319A2.312,2.312,0,0,1,12.165-.33c0,1.317-.012,2.947-.012,3.268,0,.254.18.563.676.473a9.71,9.71,0,0,0,6.559-9.342A9.585,9.585,0,0,0,9.569-15.469ZM3.8-1.987c-.051.039-.039.129.027.2s.152.09.2.039.039-.129-.027-.2S3.85-2.038,3.8-1.987ZM3.377-2.3c-.027.051.012.113.09.152a.116.116,0,0,0,.168-.027c.027-.051-.012-.113-.09-.152C3.467-2.354,3.4-2.343,3.377-2.3ZM4.644-.912c-.063.051-.039.168.051.242.09.09.2.1.254.039S4.976-.8,4.9-.873C4.812-.963,4.695-.974,4.644-.912ZM4.2-1.487c-.063.039-.063.141,0,.231s.168.129.219.09a.178.178,0,0,0,0-.242C4.362-1.5,4.261-1.537,4.2-1.487Z" transform="translate(5.136 21.024)" fill="#fff"/>
  </g>
</svg>
